<svg xmlns="http://www.w3.org/2000/svg" width="554" height="389" fill="none" viewBox="0 0 554 389">
  <path fill="#AAA" d="m194.033 49.036 7.571 1.391-2.226 12.114-7.57-1.392 2.225-12.113Zm35.183-4.522 6.338-4.37 6.991 10.139-6.337 4.37-6.992-10.14Zm-69.029-3.83-4.37-6.337 10.14-6.992 4.37 6.338-10.14 6.991Zm16.907 14.536-6.42-4.248L177.47 40.7l6.42 4.247-6.796 10.271Zm44.516 5.645-7.542 1.536-2.458-12.069 7.543-1.535 2.457 12.068Zm35.469-27.487-4.248 6.42L242.56 33l4.247-6.419 10.272 6.796Zm78.052 2.803 3.41-4.408 7.052 5.456-3.41 4.408-7.052-5.456Zm-66.402-14.534-.706-5.528 8.845-1.13.706 5.528-8.845 1.13Zm17.95 27.077-4.408-3.41 5.455-7.053 4.408 3.41-5.455 7.053Zm31.837 6.454-5.528.706-1.13-8.844 5.528-.706 1.13 8.844Zm14.965-6.046-4.865 2.718-4.35-7.783 4.865-2.719 4.35 7.784Zm18.417-26.76-1.517 5.362-8.58-2.428 1.518-5.363 8.579 2.429Zm-72.057 5.025 2.719 4.865-7.784 4.35-2.718-4.866 7.783-4.35Zm18.76 17.536 5.363 1.518-2.428 8.58-5.363-1.518 2.428-8.58Z"/>
  <path fill="#DDD" d="M1.278 51.813 217.19 4.258l35.917 163.076-215.91 47.554L1.278 51.812Z"/>
  <path fill="#C44747" d="M221.702 24.754 6.565 75.82.34 47.555 216.25 0l5.452 24.754Z"/>
  <path fill="#D65651" d="m2.149 50.913 215.91-47.554 5.452 24.754L7.601 75.667 2.149 50.913Z"/>
  <path fill="#FCF0ED" d="M146.519 36.26 82.268 50.413a4.069 4.069 0 0 1-1.751-7.948l64.251-14.152a4.07 4.07 0 0 1 1.751 7.949ZM21.46 55.47l9.087-2a1.685 1.685 0 0 1 2.008 1.282l1.026 4.658a1.683 1.683 0 0 1-1.284 2.008l-9.085 2.001a1.683 1.683 0 0 1-2.009-1.283l-1.025-4.658a1.685 1.685 0 0 1 1.282-2.007Z"/>
  <path fill="#CECECE" d="m9.457 80.818 215.91-47.554 29.532 134.084-215.91 47.554L9.457 80.818Z"/>
  <path fill="#FCF0ED" d="m194.609 17.334 9.086-2.001a1.686 1.686 0 0 1 2.008 1.283l1.026 4.658a1.691 1.691 0 0 1-.681 1.744 1.69 1.69 0 0 1-.602.264l-9.086 2a1.689 1.689 0 0 1-1.744-.68 1.669 1.669 0 0 1-.264-.602l-1.026-4.658a1.692 1.692 0 0 1 .225-1.27 1.677 1.677 0 0 1 1.058-.738Z"/>
  <path fill="#F4F4F4" d="m7.601 75.667 215.911-47.554 29.531 134.084-215.91 47.554L7.6 75.667Z"/>
  <path fill="#E5DBDA" d="m7.6 75.668 215.911-47.555 1.139 5.172L8.74 80.839 7.6 75.668Z"/>
  <path fill="#F6E18C" d="m26.523 86.296 24.754-5.452 4.392 19.94-24.754 5.452-4.392-19.94Zm26.817-5.908 24.755-5.452 4.392 19.941-24.754 5.452-4.392-19.94Zm26.818-5.906 24.754-5.452 4.392 19.94-24.754 5.452-4.392-19.94Zm26.817-5.907 24.754-5.452 4.392 19.94-24.754 5.453-4.392-19.94Z"/>
  <path fill="#EDC76E" d="m133.792 62.669 24.754-5.452 4.392 19.94-24.754 5.452-4.392-19.94Z"/>
  <path fill="#DC7C6D" d="m160.608 56.762 24.754-5.452 4.392 19.94L165 76.704l-4.392-19.94Zm26.817-5.906 24.754-5.452 4.392 19.94-24.754 5.452-4.392-19.94Z"/>
  <path fill="#F6E18C" d="m31.37 108.298 24.754-5.452 4.392 19.941-24.754 5.452-4.392-19.941Zm26.818-5.906 24.754-5.452 4.391 19.94-24.754 5.452-4.392-19.94Zm26.816-5.907 24.754-5.452 4.392 19.941-24.754 5.452-4.392-19.94Zm26.817-5.906 24.754-5.452 4.392 19.94-24.754 5.452-4.392-19.94Z"/>
  <path fill="#EDC76E" d="m138.638 84.672 24.754-5.452 4.392 19.94-24.754 5.453-4.392-19.94Z"/>
  <path fill="#DC7C6D" d="m165.454 78.766 24.754-5.452 4.392 19.94-24.754 5.452-4.392-19.94Zm26.817-5.906 24.754-5.453 4.392 19.94-24.754 5.453-4.392-19.94Z"/>
  <path fill="#F6E18C" d="m36.242 130.416 24.754-5.452 4.392 19.941-24.754 5.452-4.392-19.941Zm26.818-5.906 24.753-5.452 4.392 19.941-24.754 5.452-4.392-19.941Zm26.816-5.906 24.753-5.453 4.392 19.941-24.754 5.452-4.391-19.94Zm26.817-5.907 24.754-5.452 4.392 19.941-24.754 5.452-4.392-19.941Z"/>
  <path fill="#EDC76E" d="m143.51 106.791 24.754-5.452 4.392 19.94-24.754 5.452-4.392-19.94Z"/>
  <path fill="#DC7C6D" d="m170.326 100.884 24.754-5.452 4.392 19.941-24.754 5.452-4.392-19.941Zm26.817-5.906 24.754-5.452 4.392 19.94-24.754 5.452-4.392-19.94Z"/>
  <path fill="#F6E18C" d="m41.087 152.421 24.754-5.452 4.392 19.941-24.754 5.452-4.392-19.941Zm26.818-5.908 24.754-5.452 4.392 19.941-24.754 5.452-4.392-19.941Zm26.817-5.906 24.754-5.452 4.392 19.94-24.754 5.452-4.392-19.94Zm26.817-5.907 24.754-5.452 4.392 19.941-24.754 5.452-4.392-19.941Z"/>
  <path fill="#EDC76E" d="m148.356 128.794 24.754-5.452 4.392 19.94-24.754 5.453-4.392-19.941Z"/>
  <path fill="#DC7C6D" d="m175.173 122.887 24.754-5.452 4.392 19.941-24.754 5.452-4.392-19.941Zm26.816-5.906 24.754-5.452 4.392 19.94-24.754 5.452-4.392-19.94Z"/>
  <path fill="#F6E18C" d="m46.036 174.882 24.754-5.452 4.391 19.94-24.753 5.452-4.392-19.94Zm26.816-5.907 24.754-5.452 4.392 19.941-24.754 5.452-4.392-19.941Zm26.818-5.907 24.753-5.452 4.392 19.941-24.754 5.452-4.392-19.941Zm26.816-5.906 24.754-5.452 4.392 19.941-24.754 5.452-4.392-19.941Z"/>
  <path fill="#EDC76E" d="m153.303 151.256 24.754-5.452 4.392 19.94-24.754 5.452-4.392-19.94Z"/>
  <path fill="#DC7C6D" d="m180.12 145.349 24.754-5.452 4.392 19.941-24.754 5.452-4.392-19.941Zm26.817-5.906 24.754-5.452 4.392 19.94-24.754 5.452-4.392-19.94Z"/>
  <path fill="#75797A" d="M107.526 97.183a12.768 12.768 0 0 0-7.53-4.72 10.568 10.568 0 0 0-8.341 1.608 9.645 9.645 0 0 0-3.892 7.639 12.866 12.866 0 0 0 3.009 8.332 14.072 14.072 0 0 0 7.362 4.7 9.715 9.715 0 0 0 8.208-1.536 10.172 10.172 0 0 0 2.706-3.355 10.18 10.18 0 0 0 1.071-4.175 12.76 12.76 0 0 0-2.594-8.493h.001Zm.095-.074a15.343 15.343 0 0 1 3.292 8.577 10.68 10.68 0 0 1-.833 4.696 9.587 9.587 0 0 1-7.424 5.751 11.653 11.653 0 0 1-4.802-.292 13.908 13.908 0 0 1-7.606-5.397 15.223 15.223 0 0 1-2.876-8.739 12.093 12.093 0 0 1 .854-4.596 9.713 9.713 0 0 1 2.817-3.834 9.263 9.263 0 0 1 4.4-1.923c1.588-.24 3.21-.11 4.74.378 2.97.992 5.566 2.87 7.438 5.38Zm64.162 31.742a10.873 10.873 0 0 0-3.589-3.014 11.79 11.79 0 0 0-4.449-1.272 12.963 12.963 0 0 0-8.595 2.426 11.605 11.605 0 0 0-4.755 7.65 11.265 11.265 0 0 0 2.474 8.728 12.08 12.08 0 0 0 7.842 4.263 11.806 11.806 0 0 0 8.479-2.348 12.403 12.403 0 0 0 4.637-7.561 11.21 11.21 0 0 0-2.044-8.872Zm.1-.076a13.208 13.208 0 0 1 2.763 9.056 11.68 11.68 0 0 1-1.407 4.727 12.276 12.276 0 0 1-7.716 5.98 12.786 12.786 0 0 1-4.966.264 12.254 12.254 0 0 1-8.233-5.015 13.127 13.127 0 0 1-2.332-9.198 13.336 13.336 0 0 1 1.42-4.629 12.428 12.428 0 0 1 3.102-3.796 11.592 11.592 0 0 1 9.333-2.379 13.197 13.197 0 0 1 8.036 4.99ZM70.177 174.782a10.872 10.872 0 0 0-3.59-3.014 11.786 11.786 0 0 0-4.449-1.273 12.968 12.968 0 0 0-8.594 2.427 11.596 11.596 0 0 0-4.755 7.65 11.262 11.262 0 0 0 2.474 8.728 12.08 12.08 0 0 0 7.842 4.263 11.807 11.807 0 0 0 8.479-2.349 12.408 12.408 0 0 0 4.637-7.56 11.204 11.204 0 0 0-2.044-8.872Zm.1-.077a13.206 13.206 0 0 1 2.762 9.056 11.669 11.669 0 0 1-1.406 4.728 12.275 12.275 0 0 1-7.716 5.979 12.81 12.81 0 0 1-4.967.265 12.254 12.254 0 0 1-8.232-5.015 13.124 13.124 0 0 1-2.332-9.199 13.343 13.343 0 0 1 1.42-4.628 12.432 12.432 0 0 1 3.102-3.797 11.578 11.578 0 0 1 9.333-2.379 13.2 13.2 0 0 1 8.035 4.99Z"/>
  <path fill="#70A4FF" d="m221.947 223.234-79.437 17.667a9.592 9.592 0 0 1-9.941-3.858 9.589 9.589 0 0 1-1.51-3.426l-28.064-126.184a9.075 9.075 0 0 1 6.889-10.83l79.944-17.78a10.022 10.022 0 0 1 11.956 7.605l27.768 124.85a10.032 10.032 0 0 1-4.028 10.379 10.045 10.045 0 0 1-3.578 1.577h.001Z"/>
  <path fill="#fff" d="m221.497 220.829-80.464 17.896a8.624 8.624 0 0 1-10.295-6.55l-27.782-124.914a8.902 8.902 0 0 1 6.756-10.62l80.198-17.837a9.936 9.936 0 0 1 11.856 7.543l27.273 122.625a9.937 9.937 0 0 1-7.542 11.857Z"/>
  <path fill="#70A4FF" d="m219.452 217.567-80.96 18.006a6.832 6.832 0 0 1-8.151-5.185l-27.565-123.936a8.072 8.072 0 0 1 6.127-9.632l79.749-17.736a9.737 9.737 0 0 1 11.622 7.393l26.57 119.468a9.742 9.742 0 0 1-3.915 10.089 9.734 9.734 0 0 1-3.477 1.533Z"/>
  <path fill="#5A6B92" d="M174.963 82.129 180.037 81l32.118 144.412-5.074 1.128-32.118-144.411Z"/>
  <path fill="#46627E" d="m205.762 220.612 5.074-1.129 1.319 5.928-5.074 1.129-1.319-5.928Z"/>
  <path fill="#5F8EFC" d="m143.832 234.386-6.262 1.382a6.102 6.102 0 0 1-7.278-4.644l-28.029-126.941a5.751 5.751 0 0 1 2.319-5.948 5.743 5.743 0 0 1 2.053-.901l6.613-1.46 30.584 138.512Z"/>
  <path fill="#5A6B92" d="m139.292 159.66 25.872-5.713 1.211 5.487-25.871 5.713-1.212-5.487Zm-2.431-11.013 44.152-9.749 1.304 5.904-44.153 9.749-1.303-5.904Z"/>
  <path fill="#FFC900" d="m202.475 96.413 6.492-1.433a2.472 2.472 0 0 1 2.947 1.88l3.517 15.925a2.475 2.475 0 0 1-1.881 2.948l-6.492 1.434-4.583-20.754Z"/>
  <path fill="#E16F71" d="m208.326 122.916 6.492-1.434a2.475 2.475 0 0 1 2.948 1.882l3.516 15.925a2.47 2.47 0 0 1-1.881 2.948l-6.492 1.433-4.583-20.754Z"/>
  <path fill="#F0A259" d="m214.038 148.777 6.492-1.433a2.473 2.473 0 0 1 2.947 1.881l3.517 15.925a2.475 2.475 0 0 1-1.882 2.948l-6.492 1.433-4.582-20.754Z"/>
  <path fill="#4EB7B8" d="m219.889 175.279 6.492-1.434a2.475 2.475 0 0 1 2.948 1.882l3.517 15.925a2.476 2.476 0 0 1-1.882 2.948l-6.492 1.433-4.583-20.754Z"/>
  <path fill="#D65651" d="m177.732 250.396-9.938-5.243-6.765 8.972-5.012-22.449 16.703-3.73 5.012 22.45Z"/>
  <path fill="#7B8998" d="M184.309 14.19H545.13v249.044H184.309V14.19Z"/>
  <path fill="#fff" d="M189.212 27.482h351.015v214.182H189.212V27.482Z"/>
  <path fill="#8B9BA9" d="M179.407 251.468h370.625v11.766H179.407v-11.766Z"/>
  <path fill="#94A2B4" d="M175.485 14.19h378.469v9.915H175.485V14.19Z"/>
  <path fill="#94A8C2" d="M184.179 24.104H545.13v6.754H184.179v-6.754Z" opacity=".5" style="mix-blend-mode:multiply"/>
  <path fill="#5E626B" d="M272.881 44.585h1.307v180.41h-1.307V44.585Z"/>
  <path fill="#5E626B" d="M201.959 85.982h321.6v1.307h-321.6v-1.307Zm0 48.154h321.6v1.307h-321.6v-1.307Zm0 47.191h321.6v1.307h-321.6v-1.307Z"/>
  <path fill="#5E626B" d="M364.066 44.585h1.308v180.41h-1.308V44.585Zm90.205 0h1.307v180.41h-1.307V44.585Z"/>
  <path fill="#A0A8AD" d="M201.958 52.319h59.556v3.921h-59.556v-3.922Zm0 7.054h59.556v3.922h-59.556v-3.922Zm0 93.006h59.556v3.922h-59.556v-3.922Zm0 7.054h59.556v3.922h-59.556v-3.922Zm0-93.005h59.556v3.921h-59.556v-3.922Zm0 6.972h46.046v3.922h-46.046V73.4Zm0 120.393h59.556v3.922h-59.556v-3.922Zm0 7.055h59.556v3.921h-59.556v-3.921Zm0 6.972h46.046v3.922h-46.046v-3.922Zm0-102.87h59.556v3.921h-59.556v-3.921Zm0 6.972h54.762v3.922h-54.762v-3.922Z"/>
  <path fill="#F6E18C" d="m394.29 109.895.881-.881V93.289h-21.828v21.829h15.725l5.222-5.223Z"/>
  <path fill="#FFEEBD" d="M389.068 109.014h6.103l-6.103 6.104v-6.104Z"/>
  <path fill="#EDC76E" d="M373.343 93.29h21.828v2.844h-21.828V93.29Z"/>
  <path fill="#8C8A85" d="M375.968 99.88h16.578v1.02h-16.578v-1.02Zm0 1.956h16.578v1.022h-16.578v-1.022Zm0 2.128h16.578v1.021h-16.578v-1.021Z"/>
  <path fill="#F6E18C" d="m394.29 157.861.881-.881v-15.724h-21.828v21.828h15.725l5.222-5.223Z"/>
  <path fill="#FFEEBD" d="M389.068 156.98h6.103l-6.103 6.104v-6.104Z"/>
  <path fill="#EDC76E" d="M373.343 141.256h21.828v2.844h-21.828v-2.844Z"/>
  <path fill="#8C8A85" d="M375.968 149.803h16.578v1.021h-16.578v-1.021Zm3.003 1.957h10.573v1.021h-10.573v-1.021Z"/>
  <path fill="#F6E18C" d="m299.163 65.064.881-.88V48.458h-21.828v21.828h15.725l5.222-5.223Z"/>
  <path fill="#FFEEBD" d="M293.941 64.183h6.103l-6.103 6.105v-6.105Z"/>
  <path fill="#EDC76E" d="M278.216 48.459h21.828v2.845h-21.828v-2.845Z"/>
  <path fill="#8C8A85" d="M280.841 57.006h16.578v1.021h-16.578v-1.02Zm3.003 1.957h10.572v1.022h-10.572v-1.022Z"/>
  <path fill="#F6E18C" d="m481.515 204.072.88-.881v-15.725h-21.828v21.829h15.724l5.224-5.223Z"/>
  <path fill="#FFEEBD" d="M476.291 203.191h6.104l-6.104 6.103v-6.103Z"/>
  <path fill="#EDC76E" d="M460.567 187.466h21.828v2.845h-21.828v-2.845Z"/>
  <path fill="#8C8A85" d="M463.192 196.013h16.578v1.021h-16.578v-1.021Zm0 1.958h13.099v1.021h-13.099v-1.021Z"/>
  <path fill="#F6E18C" d="m299.163 204.072.881-.881v-15.725h-21.828v21.829h15.725l5.222-5.223Z"/>
  <path fill="#FFEEBD" d="M293.941 203.191h6.103l-6.103 6.103v-6.103Z"/>
  <path fill="#EDC76E" d="M278.216 187.466h21.828v2.845h-21.828v-2.845Z"/>
  <path fill="#8C8A85" d="M280.841 194.056h16.578v1.021h-16.578v-1.021Zm8.289 10.332-2.882 1.515.551-3.209-2.331-2.272 3.222-.468 1.44-2.919 1.441 2.919 3.221.468-2.331 2.272.55 3.209-2.881-1.515Z"/>
  <path fill="#DC7C6D" d="m326.454 65.064.88-.88V48.458h-21.827v21.828h15.724l5.223-5.223Z"/>
  <path fill="#DF9F9A" d="M321.231 64.183h6.103l-6.103 6.105v-6.105Z"/>
  <path fill="#D65651" d="M305.507 48.459h21.828v2.845h-21.828v-2.845Z"/>
  <path fill="#787170" d="M308.131 55.049h16.579v1.021h-16.579v-1.02Zm0 1.957h16.579v1.021h-16.579v-1.02Zm0 2.128h16.579v1.021h-16.579v-1.021Z"/>
  <path fill="#DC7C6D" d="m481.515 109.895.88-.881V93.289h-21.828v21.829h15.724l5.224-5.223Z"/>
  <path fill="#DF9F9A" d="M476.291 109.014h6.104l-6.104 6.104v-6.104Z"/>
  <path fill="#D65651" d="M460.567 93.29h21.828v2.844h-21.828V93.29Z"/>
  <path fill="#787170" d="M463.192 101.837h16.578v1.021h-16.578v-1.021Zm3.003 1.957h10.572v1.021h-10.572v-1.021Z"/>
  <path fill="#DC7C6D" d="m506.649 204.072.881-.881v-15.725h-21.828v21.829h15.725l5.222-5.223Z"/>
  <path fill="#DF9F9A" d="M501.427 203.191h6.104l-6.104 6.103v-6.103Z"/>
  <path fill="#D65651" d="M485.702 187.466h21.829v2.845h-21.829v-2.845Z"/>
  <path fill="#787170" d="M488.327 196.013h16.578v1.021h-16.578v-1.021Zm0 1.958h13.099v1.021h-13.099v-1.021Z"/>
  <path fill="#DC7C6D" d="m299.163 109.895.881-.881V93.289h-21.828v21.829h15.725l5.222-5.223Z"/>
  <path fill="#DF9F9A" d="M293.941 109.014h6.103l-6.103 6.104v-6.104Z"/>
  <path fill="#D65651" d="M278.216 93.29h21.828v2.844h-21.828V93.29Z"/>
  <path fill="#787170" d="M280.841 99.88h16.578v1.02h-16.578v-1.02Zm8.289 10.331-2.882 1.514.551-3.208-2.331-2.272 3.222-.468 1.44-2.919 1.441 2.919 3.221.468-2.331 2.272.55 3.208-2.881-1.514Z"/>
  <path fill="#70A4FF" d="m299.163 157.861.881-.881v-15.724h-21.828v21.828h15.725l5.222-5.223Z"/>
  <path fill="#ABCDFB" d="M293.941 156.98h6.103l-6.103 6.104v-6.104Z"/>
  <path fill="#5F8EFC" d="M278.216 141.256h21.828v2.844h-21.828v-2.844Z"/>
  <path fill="#84878D" d="M280.841 147.845h16.578v1.021h-16.578v-1.021Zm0 1.958h16.578v1.021h-16.578v-1.021Zm0 2.127h16.578v1.021h-16.578v-1.021Z"/>
  <path fill="#70A4FF" d="m351.902 109.895.881-.881V93.289h-21.828v21.829h15.724l5.223-5.223Z"/>
  <path fill="#ABCDFB" d="M346.679 109.014h6.104l-6.104 6.104v-6.104Z"/>
  <path fill="#5F8EFC" d="M330.955 93.29h21.828v2.844h-21.828V93.29Z"/>
  <path fill="#84878D" d="M333.58 101.837h16.578v1.021H333.58v-1.021Zm3.003 1.957h10.573v1.021h-10.573v-1.021Z"/>
  <path fill="#70A4FF" d="m326.454 204.072.88-.881v-15.725h-21.827v21.829h15.724l5.223-5.223Z"/>
  <path fill="#ABCDFB" d="M321.231 203.191h6.103l-6.103 6.103v-6.103Z"/>
  <path fill="#5F8EFC" d="M305.507 187.466h21.828v2.845h-21.828v-2.845Z"/>
  <path fill="#84878D" d="M308.131 196.013h16.579v1.021h-16.579v-1.021Zm0 1.958h13.099v1.021h-13.099v-1.021Z"/>
  <path fill="#7AD9DB" d="m351.902 157.861.881-.881v-15.724h-21.828v21.828h15.724l5.223-5.223Z"/>
  <path fill="#C5EAE9" d="M346.679 156.98h6.104l-6.104 6.104v-6.104Z"/>
  <path fill="#59A8AF" d="M330.955 141.256h21.828v2.844h-21.828v-2.844Z"/>
  <path fill="#7C8282" d="M333.58 149.803h16.578v1.021H333.58v-1.021Zm0 1.957h13.099v1.021H333.58v-1.021Z"/>
  <path fill="#7AD9DB" d="m443.652 110.166.88-.881V93.561h-21.827v21.828h15.724l5.223-5.223Z"/>
  <path fill="#C5EAE9" d="M438.429 109.285h6.104l-6.104 6.104v-6.104Z"/>
  <path fill="#59A8AF" d="M422.705 93.56h21.828v2.845h-21.828v-2.844Z"/>
  <path fill="#7C8282" d="M425.329 102.108h16.579v1.021h-16.579v-1.021Zm0 1.957h16.579v1.021h-16.579v-1.021Z"/>
  <path fill="#7AD9DB" d="m443.652 204.072.88-.881v-15.725h-21.827v21.829h15.724l5.223-5.223Z"/>
  <path fill="#C5EAE9" d="M438.429 203.191h6.104l-6.104 6.103v-6.103Z"/>
  <path fill="#59A8AF" d="M422.705 187.466h21.828v2.845h-21.828v-2.845Z"/>
  <path fill="#7C8282" d="M425.329 196.013h16.579v1.021h-16.579v-1.021Zm0 1.958h16.579v1.021h-16.579v-1.021Z"/>
  <path fill="#70A4FF" d="m481.515 65.064.88-.88V48.458h-21.828v21.828h15.724l5.224-5.223Z"/>
  <path fill="#ABCDFB" d="M476.291 64.183h6.104l-6.104 6.105v-6.105Z"/>
  <path fill="#5F8EFC" d="M460.567 48.459h21.828v2.845h-21.828v-2.845Z"/>
  <path fill="#84878D" d="M463.192 55.049h16.578v1.021h-16.578v-1.02Zm8.289 10.331-2.881 1.515.55-3.208-2.331-2.273 3.221-.468 1.441-2.919 1.44 2.92 3.222.467-2.331 2.273.551 3.208-2.882-1.515Z"/>
  <path fill="#F6E18C" d="m506.649 65.064.881-.88V48.458h-21.828v21.828h15.725l5.222-5.223Z"/>
  <path fill="#FFEEBD" d="M501.427 64.183h6.104l-6.104 6.105v-6.105Z"/>
  <path fill="#EDC76E" d="M485.702 48.459h21.829v2.845h-21.829v-2.845Z"/>
  <path fill="#8C8A85" d="M488.327 55.049h16.578v1.021h-16.578v-1.02Zm0 1.957h16.578v1.021h-16.578v-1.02Zm0 2.128h16.578v1.021h-16.578v-1.021Z"/>
  <path fill="#F6E18C" d="m351.902 204.072.881-.881v-15.725h-21.828v21.829h15.724l5.223-5.223Z"/>
  <path fill="#FFEEBD" d="M346.679 203.191h6.104l-6.104 6.103v-6.103Z"/>
  <path fill="#EDC76E" d="M330.955 187.466h21.828v2.845h-21.828v-2.845Z"/>
  <path fill="#8C8A85" d="M333.58 196.013h16.578v1.021H333.58v-1.021Zm3.003 1.958h10.573v1.021h-10.573v-1.021Z"/>
  <path fill="#F6E18C" d="m394.29 65.064.881-.88V48.458h-21.828v21.828h15.725l5.222-5.223Z"/>
  <path fill="#FFEEBD" d="M389.068 64.183h6.103l-6.103 6.105v-6.105Z"/>
  <path fill="#EDC76E" d="M373.343 48.459h21.828v2.845h-21.828v-2.845Z"/>
  <path fill="#8C8A85" d="M375.968 57.006h16.578v1.021h-16.578v-1.02Zm3.003 1.957h10.573v1.022h-10.573v-1.022Z"/>
  <path fill="#F6E18C" d="m506.649 109.895.881-.881V93.289h-21.828v21.829h15.725l5.222-5.223Z"/>
  <path fill="#FFEEBD" d="M501.427 109.014h6.104l-6.104 6.104v-6.104Z"/>
  <path fill="#EDC76E" d="M485.702 93.29h21.829v2.844h-21.829V93.29Z"/>
  <path fill="#8C8A85" d="M488.327 101.837h16.578v1.021h-16.578v-1.021Zm0 1.957h13.099v1.021h-13.099v-1.021Z"/>
  <path fill="#F6E18C" d="m418.971 204.072.88-.881v-15.725h-21.828v21.829h15.724l5.224-5.223Z"/>
  <path fill="#FFEEBD" d="M413.747 203.191h6.105l-6.105 6.103v-6.103Z"/>
  <path fill="#EDC76E" d="M398.023 187.466h21.828v2.845h-21.828v-2.845Z"/>
  <path fill="#8C8A85" d="M400.648 194.056h16.579v1.021h-16.579v-1.021Zm8.289 10.332-2.881 1.515.55-3.209-2.331-2.272 3.221-.468 1.441-2.919 1.441 2.919 3.221.468-2.331 2.272.551 3.209-2.882-1.515Z"/>
  <path fill="#DC7C6D" d="m326.454 157.861.88-.881v-15.724h-21.827v21.828h15.724l5.223-5.223Z"/>
  <path fill="#DF9F9A" d="M321.231 156.98h6.103l-6.103 6.104v-6.104Z"/>
  <path fill="#D65651" d="M305.507 141.256h21.828v2.844h-21.828v-2.844Z"/>
  <path fill="#787170" d="M308.131 147.845h16.579v1.021h-16.579v-1.021Zm0 1.958h16.579v1.021h-16.579v-1.021Zm0 2.127h16.579v1.021h-16.579v-1.021Z"/>
  <path fill="#DC7C6D" d="m418.971 65.064.88-.88V48.458h-21.828v21.828h15.724l5.224-5.223Z"/>
  <path fill="#DF9F9A" d="M413.747 64.183h6.105l-6.105 6.105v-6.105Z"/>
  <path fill="#D65651" d="M398.023 48.459h21.828v2.845h-21.828v-2.845Z"/>
  <path fill="#787170" d="M400.648 57.006h16.579v1.021h-16.579v-1.02Zm3.003 1.957h10.572v1.022h-10.572v-1.022Z"/>
  <path fill="#DC7C6D" d="m418.971 157.861.88-.881v-15.724h-21.828v21.828h15.724l5.224-5.223Z"/>
  <path fill="#DF9F9A" d="M413.747 156.98h6.105l-6.105 6.104v-6.104Z"/>
  <path fill="#D65651" d="M398.023 141.256h21.828v2.844h-21.828v-2.844Z"/>
  <path fill="#787170" d="M400.648 149.803h16.579v1.021h-16.579v-1.021Zm0 1.957h13.099v1.021h-13.099v-1.021Z"/>
  <path fill="#DC7C6D" d="m506.649 157.861.881-.881v-15.724h-21.828v21.828h15.725l5.222-5.223Z"/>
  <path fill="#DF9F9A" d="M501.427 156.98h6.104l-6.104 6.104v-6.104Z"/>
  <path fill="#D65651" d="M485.702 141.256h21.829v2.844h-21.829v-2.844Z"/>
  <path fill="#787170" d="M488.327 147.845h16.578v1.021h-16.578v-1.021Zm8.289 10.332-2.881 1.514.55-3.208-2.331-2.272 3.222-.468 1.44-2.919 1.441 2.919 3.222.468-2.332 2.272.55 3.208-2.881-1.514Z"/>
  <path fill="#70A4FF" d="m481.515 157.861.88-.881v-15.724h-21.828v21.828h15.724l5.224-5.223Z"/>
  <path fill="#ABCDFB" d="M476.291 156.98h6.104l-6.104 6.104v-6.104Z"/>
  <path fill="#5F8EFC" d="M460.567 141.256h21.828v2.844h-21.828v-2.844Z"/>
  <path fill="#84878D" d="M463.192 147.845h16.578v1.021h-16.578v-1.021Zm0 1.958h16.578v1.021h-16.578v-1.021Zm0 2.127h16.578v1.021h-16.578v-1.021Z"/>
  <path fill="#70A4FF" d="m418.971 109.895.88-.881V93.289h-21.828v21.829h15.724l5.224-5.223Z"/>
  <path fill="#ABCDFB" d="M413.747 109.014h6.105l-6.105 6.104v-6.104Z"/>
  <path fill="#5F8EFC" d="M398.023 93.29h21.828v2.844h-21.828V93.29Z"/>
  <path fill="#84878D" d="M400.648 101.837h16.579v1.021h-16.579v-1.021Zm3.003 1.957h10.572v1.021h-10.572v-1.021Z"/>
  <path fill="#70A4FF" d="m326.454 109.895.88-.881V93.289h-21.827v21.829h15.724l5.223-5.223Z"/>
  <path fill="#ABCDFB" d="M321.231 109.014h6.103l-6.103 6.104v-6.104Z"/>
  <path fill="#5F8EFC" d="M305.507 93.29h21.828v2.844h-21.828V93.29Z"/>
  <path fill="#84878D" d="M308.131 101.837h16.579v1.021h-16.579v-1.021Zm0 1.957h13.099v1.021h-13.099v-1.021Z"/>
  <path fill="#70A4FF" d="m394.29 204.072.881-.881v-15.725h-21.828v21.829h15.725l5.222-5.223Z"/>
  <path fill="#ABCDFB" d="M389.068 203.191h6.103l-6.103 6.103v-6.103Z"/>
  <path fill="#5F8EFC" d="M373.343 187.466h21.828v2.845h-21.828v-2.845Z"/>
  <path fill="#84878D" d="M375.968 194.056h16.578v1.021h-16.578v-1.021Zm8.289 10.332-2.881 1.515.55-3.209-2.331-2.272 3.222-.468 1.44-2.919 1.441 2.919 3.221.468-2.331 2.272.55 3.209-2.881-1.515Z"/>
  <g opacity=".72">
    <mask id="a" width="379" height="11" x="175" y="14" maskUnits="userSpaceOnUse" style="mask-type:luminance">
      <path fill="#fff" d="M175.485 14.19h378.469v9.915H175.485V14.19Z"/>
    </mask>
    <g mask="url(#a)">
      <path fill="#fff" d="m314.717-41.849-79.862 179.51 85.236-5.907 77.895-184.131-83.269 10.529ZM418.58-52.377l-81.431 200.222 11.937-1.158 82.279-199.064H418.58Zm33.683 0-83.477 199.064h10.185l81.596-193.8-8.304-5.264Z" opacity=".42"/>
    </g>
  </g>
  <g opacity=".4">
    <mask id="b" width="372" height="13" x="179" y="251" maskUnits="userSpaceOnUse" style="mask-type:luminance">
      <path fill="#fff" d="M179.407 251.468h370.625v11.766H179.407v-11.766Z"/>
    </mask>
    <g mask="url(#b)">
      <path fill="#fff" d="m288.237 152.123-79.862 179.51 85.235-5.907 77.896-184.131-83.269 10.528ZM392.1 141.595l-81.431 200.222 11.937-1.158 82.279-199.064H392.1Zm33.683 0-83.477 199.064h10.185l81.596-193.8-8.304-5.264Z" opacity=".42"/>
    </g>
  </g>
  <path fill="#485355" d="m49.171 93.61 1.648-.93 3.485 6.168-1.648.93-3.485-6.168Z"/>
  <path fill="#59A8AF" d="m67.209 115.203 56.43 98.538c2.198 3.839 2.7 7.715 1.114 8.611l-1.301.734c-1.586.897-4.647-1.533-6.8-5.398l-55.268-99.196c-2.11-3.787 3.67-7.052 5.825-3.289Z"/>
  <path fill="#7AD9DB" d="m64.641 106.1 56.957 98.24c2.22 3.829 1.56 8.36-1.466 10.069l-2.481 1.402c-3.026 1.709-7.248-.065-9.381-3.942l-54.738-99.493c-2.09-3.799 8.934-10.027 11.11-6.276Z"/>
  <path fill="#5E5C67" d="m53.532 112.377 54.738 99.492c2.133 3.877 6.355 5.651 9.381 3.942l2.481-1.402a5.162 5.162 0 0 0 2.059-2.197l-2.24 1.266c-3.026 1.709-7.247-.065-9.381-3.941l-54.738-99.494c-.469-.85-.276-1.822.325-2.777-2.091 1.529-3.495 3.53-2.625 5.111Z" opacity=".46" style="mix-blend-mode:multiply"/>
  <path fill="#C5EAE9" d="m49.66 96.561 3.434-1.94 11.866 11.3-11.747 6.635-3.553-15.995Z"/>
  <path fill="#AAD1CF" d="m53.213 112.556 2.24-1.266-3.532-15.906 1.24-.7-.067-.063-3.434 1.94 3.553 15.995Z"/>
  <path fill="#59A8AF" d="m109.301 213.395-3.132 1.683-18.309-34.06 3.132-1.684 18.309 34.061Z"/>
  <path fill="#B2B2B2" d="M370.686 272.911h4.773v102.273h-4.773V272.911Z"/>
  <path fill="#D3D3D3" d="M370.686 272.911h2.387v102.273h-2.387V272.911Z"/>
  <path fill="#898989" d="M370.686 331.557h4.773v12.106h-4.773v-12.106Z" opacity=".68" style="mix-blend-mode:multiply"/>
  <path fill="#B5484E" d="M404.913 257.986h-36.816a5.068 5.068 0 0 0-5.068 5.068v69.076a5.068 5.068 0 0 0 5.068 5.068h36.816a5.068 5.068 0 0 0 5.068-5.068v-69.076a5.068 5.068 0 0 0-5.068-5.068Z"/>
  <path fill="#898989" d="M364.785 328.371h16.575v12.106h-16.575v-12.106Z"/>
  <path fill="#D7615F" d="M398.264 258.057h-43.579a5.18 5.18 0 0 0-5.18 5.179v61.653a5.18 5.18 0 0 0 5.18 5.179h43.579a5.18 5.18 0 0 0 5.179-5.179v-61.653a5.18 5.18 0 0 0-5.179-5.179Z"/>
  <path fill="#C75254" d="M344.34 321.821h59.103v12.603h-67.747v-3.959a8.645 8.645 0 0 1 8.644-8.644Z"/>
  <path fill="#B5484E" d="M335.012 332.031h68.431v4.787h-68.431v-4.787Z"/>
  <path fill="#B2B2B2" d="M390.609 382.834h-4.774a7.335 7.335 0 0 0-7.307-7.349h-10.446a7.336 7.336 0 0 0-7.307 7.349h-4.774a12.13 12.13 0 0 1 12.081-12.151h10.446a12.13 12.13 0 0 1 12.081 12.151Z"/>
  <path fill="#B2B2B2" d="M390.609 382.834h-4.774a7.335 7.335 0 0 0-7.307-7.349h-10.446a7.336 7.336 0 0 0-7.307 7.349h-4.774a12.13 12.13 0 0 1 12.081-12.151h10.446a12.13 12.13 0 0 1 12.081 12.151Z"/>
  <path fill="#D3D3D3" d="M368.082 372.34h10.446a12.118 12.118 0 0 1 11.965 10.494h.115a12.13 12.13 0 0 0-12.08-12.151h-10.446a12.13 12.13 0 0 0-12.081 12.151h.116a12.118 12.118 0 0 1 11.965-10.494Z"/>
  <path fill="#5E5C67" d="M363.049 380.922a3.994 3.994 0 0 0-2.479-3.669 3.988 3.988 0 0 0-5.194 5.225 3.992 3.992 0 0 0 3.684 2.457 3.982 3.982 0 0 0 1.53-.309 3.99 3.99 0 0 0 2.459-3.704Z"/>
  <path fill="#7A7982" d="M361.706 380.922a3.994 3.994 0 0 0-2.479-3.669 3.988 3.988 0 0 0-5.194 5.225 3.987 3.987 0 0 0 6.51 1.277 4.002 4.002 0 0 0 1.163-2.833Z"/>
  <path fill="#5E5C67" d="M392.882 380.922a3.985 3.985 0 0 0-4.782-3.886 3.988 3.988 0 1 0 2.323 7.59 3.993 3.993 0 0 0 2.459-3.704Z"/>
  <path fill="#7A7982" d="M391.54 380.922a3.994 3.994 0 0 0-2.479-3.669 3.988 3.988 0 0 0-5.194 5.225 3.993 3.993 0 0 0 3.683 2.457 3.984 3.984 0 0 0 2.826-1.18 3.99 3.99 0 0 0 1.164-2.833Z"/>
  <path fill="#5E5C67" d="M387.458 383.491c1.41 0 2.554-1.15 2.554-2.569a2.562 2.562 0 0 0-2.554-2.569 2.562 2.562 0 0 0-2.555 2.569 2.562 2.562 0 0 0 2.555 2.569Zm-27.187-2.569a2.56 2.56 0 0 0-1.588-2.349 2.555 2.555 0 1 0-.966 4.918 2.562 2.562 0 0 0 2.554-2.569Z"/>
  <path fill="#B2B2B2" d="M91.768 272.911h4.773v102.273h-4.773V272.911Z"/>
  <path fill="#D3D3D3" d="M94.155 272.911h2.387v102.273h-2.387V272.911Z"/>
  <path fill="#898989" d="M91.768 331.557h4.773v12.106h-4.773v-12.106Z" opacity=".68" style="mix-blend-mode:multiply"/>
  <path fill="#B5484E" d="M62.314 337.199H99.13a5.068 5.068 0 0 0 5.068-5.068v-69.076a5.068 5.068 0 0 0-5.068-5.068H62.314a5.068 5.068 0 0 0-5.068 5.068v69.076a5.068 5.068 0 0 0 5.068 5.068Z"/>
  <path fill="#898989" d="M102.442 340.478H85.867v-12.107h16.575v12.107Z"/>
  <path fill="#D7615F" d="M68.964 330.067h43.579a5.18 5.18 0 0 0 5.179-5.179v-61.653a5.18 5.18 0 0 0-5.179-5.179H68.964a5.18 5.18 0 0 0-5.179 5.179v61.653a5.18 5.18 0 0 0 5.179 5.179Z"/>
  <path fill="#C75254" d="M131.531 334.425H63.785v-12.603h59.102a8.642 8.642 0 0 1 8.643 8.643v3.959l.001.001Z"/>
  <path fill="#B5484E" d="M63.784 332.031h68.431v4.787h-68.43v-4.787Z"/>
  <path fill="#B2B2B2" d="M76.618 382.834h4.775a7.333 7.333 0 0 1 7.306-7.349h10.447a7.336 7.336 0 0 1 7.307 7.349h4.773a12.13 12.13 0 0 0-12.08-12.151H88.7a12.13 12.13 0 0 0-12.08 12.151h-.002Z"/>
  <path fill="#B2B2B2" d="M76.618 382.834h4.775a7.333 7.333 0 0 1 7.306-7.349h10.447a7.336 7.336 0 0 1 7.307 7.349h4.773a12.13 12.13 0 0 0-12.08-12.151H88.7a12.13 12.13 0 0 0-12.08 12.151h-.002Z"/>
  <path fill="#D3D3D3" d="M99.145 372.34H88.7a12.12 12.12 0 0 0-11.966 10.494h-.115a12.133 12.133 0 0 1 12.08-12.151h10.448a12.13 12.13 0 0 1 12.08 12.151h-.115a12.123 12.123 0 0 0-11.967-10.494Z"/>
  <path fill="#5E5C67" d="M104.179 380.922a3.985 3.985 0 0 1 4.782-3.886 3.988 3.988 0 1 1-2.323 7.59 3.993 3.993 0 0 1-2.459-3.704Z"/>
  <path fill="#7A7982" d="M105.521 380.922a3.994 3.994 0 0 1 2.479-3.669 3.988 3.988 0 0 1 5.194 5.225 3.992 3.992 0 0 1-3.684 2.457 3.982 3.982 0 0 1-1.53-.309 3.99 3.99 0 0 1-2.459-3.704Z"/>
  <path fill="#5E5C67" d="M74.345 380.922a3.99 3.99 0 1 1 3.99 4.013 4.002 4.002 0 0 1-3.99-4.013Z"/>
  <path fill="#7A7982" d="M75.688 380.922a3.99 3.99 0 0 1 7.903-.746 3.991 3.991 0 0 1-3.914 4.759 3.986 3.986 0 0 1-2.826-1.18 3.992 3.992 0 0 1-1.163-2.833Z"/>
  <path fill="#5E5C67" d="M79.77 383.491a2.56 2.56 0 0 0 2.553-2.569 2.561 2.561 0 0 0-2.554-2.569 2.562 2.562 0 0 0-2.554 2.569 2.562 2.562 0 0 0 2.554 2.569Zm27.186-2.569a2.557 2.557 0 0 1 3.062-2.488 2.555 2.555 0 0 1-.508 5.057 2.55 2.55 0 0 1-1.809-.755 2.575 2.575 0 0 1-.745-1.814Z"/>
  <path fill="#B2B2B2" d="M209.424 265.39h4.774v102.274h-4.774V265.39Z"/>
  <path fill="#D3D3D3" d="M211.811 265.39h2.387v102.274h-2.387V265.39Z"/>
  <path fill="#898989" d="M209.424 324.036h4.774v12.107h-4.774v-12.107Z" opacity=".68" style="mix-blend-mode:multiply"/>
  <path fill="#B5484E" d="M179.97 329.678h36.816a5.068 5.068 0 0 0 5.068-5.068v-69.077a5.067 5.067 0 0 0-5.068-5.067H179.97a5.067 5.067 0 0 0-5.068 5.067v69.077a5.068 5.068 0 0 0 5.068 5.068Z"/>
  <path fill="#898989" d="M220.099 332.957h-16.575v-12.106h16.575v12.106Z"/>
  <path fill="#D7615F" d="M230.198 322.548h-43.579a5.179 5.179 0 0 1-5.179-5.179v-61.652a5.183 5.183 0 0 1 3.197-4.786 5.183 5.183 0 0 1 1.982-.394h43.579a5.179 5.179 0 0 1 5.179 5.179v61.653a5.18 5.18 0 0 1-5.179 5.179Z"/>
  <path fill="#C75254" d="M249.187 326.904h-67.746v-12.603h59.103a8.64 8.64 0 0 1 8.643 8.644v3.959Z"/>
  <path fill="#B5484E" d="M181.441 324.51h68.431v4.788h-68.431v-4.788Z"/>
  <path fill="#B2B2B2" d="M194.275 375.314h4.774a7.338 7.338 0 0 1 7.307-7.35h10.445a7.339 7.339 0 0 1 7.307 7.35h4.774a12.128 12.128 0 0 0-12.081-12.152h-10.446a12.131 12.131 0 0 0-12.081 12.152h.001Z"/>
  <path fill="#B2B2B2" d="M194.275 375.314h4.774a7.338 7.338 0 0 1 7.307-7.35h10.445a7.339 7.339 0 0 1 7.307 7.35h4.774a12.128 12.128 0 0 0-12.081-12.152h-10.446a12.131 12.131 0 0 0-12.081 12.152h.001Z"/>
  <path fill="#D3D3D3" d="M216.801 364.819h-10.446a12.12 12.12 0 0 0-11.966 10.495h-.115a12.13 12.13 0 0 1 12.081-12.152h10.446a12.131 12.131 0 0 1 12.081 12.152h-.115a12.118 12.118 0 0 0-11.966-10.495Z"/>
  <path fill="#5E5C67" d="M221.835 373.402a3.986 3.986 0 0 1 2.479-3.669 3.989 3.989 0 1 1-.02 7.373 3.997 3.997 0 0 1-2.159-2.172 3.987 3.987 0 0 1-.3-1.532Z"/>
  <path fill="#7A7982" d="M223.177 373.402a3.994 3.994 0 0 1 2.479-3.669 3.99 3.99 0 1 1 1.511 7.682 4.012 4.012 0 0 1-2.826-1.181 4.006 4.006 0 0 1-1.164-2.832Z"/>
  <path fill="#5E5C67" d="M192.002 373.402a3.985 3.985 0 0 1 2.479-3.669 3.988 3.988 0 0 1 3.724 7.011 3.997 3.997 0 0 1-2.215.671 4.002 4.002 0 0 1-3.988-4.013Z"/>
  <path fill="#7A7982" d="M193.344 373.402a3.994 3.994 0 0 1 2.479-3.669 3.989 3.989 0 1 1 1.51 7.682 4.004 4.004 0 0 1-3.989-4.013Z"/>
  <path fill="#5E5C67" d="M194.872 373.402a2.556 2.556 0 0 1 3.061-2.489 2.562 2.562 0 0 1 1.999 2.01 2.556 2.556 0 0 1-2.506 3.048 2.56 2.56 0 0 1-2.554-2.569Zm29.741 0a2.556 2.556 0 0 1 3.061-2.489 2.559 2.559 0 0 1 1.999 2.011 2.552 2.552 0 0 1-1.089 2.617c-.42.28-.913.43-1.417.43a2.553 2.553 0 0 1-1.809-.756 2.563 2.563 0 0 1-.745-1.813Z"/>
  <path fill="#EDAE9F" d="m129.601 380.761-.104-64.801 13.425.831-8.092 64.293-5.229-.323Z"/>
  <path fill="#E9BDB0" d="m142.506 383.547-19.727-65.624 13.09-3.094 11.737 67.513-5.1 1.205Z"/>
  <path fill="#FFC5C5" d="M241.2 368.952s-5.561-.144-8.688-2.847l3.197-9.143 5.608 4.449s-1.724 5.33-.117 7.541Z"/>
  <path fill="#E9BDB0" d="M241.131 362.056c-.397 1.485-1.196 5.155.069 6.896 0 0-5.561-.144-8.688-2.847l1.929-5.517 6.69 1.468Z"/>
  <path fill="#002135" d="M232.839 365.17s-3.174 4.198.996 8.522c4.169 4.325 9.61 12.033 14.504 11.093 4.895-.94-7.139-15.833-7.139-15.833l-8.361-3.782Z"/>
  <path fill="#FFC5C5" d="M213.723 366.821s-5.562-.145-8.688-2.848l3.197-9.143 5.608 4.449s-1.725 5.33-.117 7.542Z"/>
  <path fill="#E9BDB0" d="M213.654 359.925c-.397 1.485-1.196 5.155.069 6.895 0 0-5.562-.144-8.688-2.847l1.928-5.517 6.691 1.469Z"/>
  <path fill="#585653" d="m232.575 363.038 5.166-51.367-27.421-.24a12.708 12.708 0 0 1-2.788-.351 12.084 12.084 0 0 1-8.835-14.623 12.079 12.079 0 0 1 14.622-8.835l.498.962 34.255 7.612 1.006.249a7.687 7.687 0 0 1 5.679 8.976l-13.312 59.692-8.87-2.075Z"/>
  <path fill="#585653" d="M183.945 287.268s-6.555 15.318 0 23.335c2.884 3.528 31.763 1.701 31.763 1.701s-3.542 15.18-5.34 20.141c-2.364 6.52-4.661 28.676-4.661 28.676s2.583 2.258 8.096 2.228c0 0 18.54-48.638 17.862-56.744-.769-9.175-40.065-17.397-40.065-17.397l-7.655-1.94Z"/>
  <path fill="#E0B3A9" d="M205.603 233.274c-.294-5-.447-22.352-.449-22.527l-9.824-2.323c.006.723.205 20.182.513 25.424l9.76-.574Z"/>
  <path fill="#F6E18C" d="M218.223 277.305c-.563-11.486 1.56-26.792.166-37.143-.076-.564-.151-1.101-.225-1.625.007-6.996-.469-12.332-1.853-13.222-2.799-1.8-9.855-2.385-14.885-2.571-2.553-.29-11.272-.204-14.384.548a3.721 3.721 0 0 0-1.671.874c-4.758-.503-4.558 68.812-4.558 68.812-2.498 7.779 40.049-2.642 40.049-2.642l-2.639-13.031Z"/>
  <path fill="#E9BDB0" d="M190.978 208.231c-.587-4.195.429-9.217 1.475-10.76.167-.214.343-.425.526-.635 1.831-1.911 7.265-5.743 12.173-2.63.65.432 1.256.926 1.811 1.474 3.438 3.598 3.377 8.83 2.549 11.959a47.369 47.369 0 0 1-.638 1.96c-1.29 3.435-2.602 8.148-5.572 9.322-2.866 1.133-5.668.003-8.402-2.327-.273-.272-.54-.55-.801-.834-2.178-2.69-3.121-7.529-3.121-7.529Z"/>
  <path fill="#FFC5C5" d="M194.069 197.968s5.921 5.373 11.534 6.253c4.405.692 3.554-.854 4.623 0 .648-3.139.467-5.424-2.51-8.541a12.215 12.215 0 0 0-1.808-1.472 7.388 7.388 0 0 0-3.629-1.167c-3.122.639-4.857 1.983-7.64 2.957-.318.262-.62.542-.907.838-.184.21-.36.422-.527.635l.864.497Z" opacity=".35" style="mix-blend-mode:multiply"/>
  <path fill="#CBEBFE" d="m241.076 266.648-1.681 8.364-4.252-.913 2.331-9.381 3.602 1.93Z"/>
  <path fill="#EDC76E" d="m205.768 220.418 3.512 2.551a8.751 8.751 0 0 1-6.69 4.172l-1.42-2.693-1.407 2.693a7.687 7.687 0 0 1-6.367-4.003l2.093-2.72s6.56 5.021 10.279 0Z"/>
  <path fill="#002135" d="M190.805 206.197s.796-7.098 4.525-6.538c3.729.561 4.808 3.046 11.249 3.253 6.44.208 7.501-1.901 5.514-2.612-1.986-.712-1.08-1.459-3.047-3.841-1.966-2.381-3.884-4.89-7.876-4.011-3.992.879-5.75-.643-7.774 1.5-2.024 2.144-3.887 6.389-2.591 12.249Z"/>
  <path fill="#002135" d="M209.046 201.774s1.137 4.844-1.329 10.983c0 0 4.276-5.811 2.509-11.41s-1.18.427-1.18.427Z"/>
  <path fill="#E9BDB0" d="M189.769 207.588c0 1.443.487 2.613 1.087 2.613.599 0 1.086-1.17 1.086-2.613 0-1.444-.486-2.614-1.086-2.614-.599 0-1.087 1.17-1.087 2.614Zm18.341-.152c-.201 1.429.117 2.656.711 2.739.594.084 1.238-1.007 1.44-2.436.201-1.429-.117-2.656-.711-2.739-.594-.085-1.238 1.007-1.44 2.436Z"/>
  <path fill="#F6E18C" d="M189.685 223.539s-8.598-2.447-17.42 11.061c-6.795 10.405-12.915 24.202-15.369 29.993a4.811 4.811 0 0 0 .843 5.097 57.264 57.264 0 0 0 4.523 4.495l.289.303c4.318 3.725 10.315 7.757 17.042 8.763 13.348 1.996 1.256-8.442 1.256-8.442l-12.403-8.906 18.346-26.718 2.893-15.646Zm18.724 0s8.599-2.447 17.422 11.061c6.795 10.405 12.915 24.202 15.369 29.993a4.81 4.81 0 0 1-.843 5.097 57.276 57.276 0 0 1-4.524 4.495l-.288.303c-4.318 3.725-10.315 7.757-17.042 8.763-13.349 1.996-1.257-8.442-1.257-8.442l12.403-8.906-18.345-26.718-2.895-15.646Z"/>
  <path fill="#002135" d="M205.362 363.038s-3.175 4.198.995 8.522 9.611 12.033 14.505 11.093c4.894-.94-7.139-15.833-7.139-15.833l-8.361-3.782Z"/>
  <path fill="#E9BDB0" d="M91.794 249.164c-.21-4.869-.215-21.72-.215-21.89l-8.12-.404c0 .702.005 17.261.224 22.365l8.11-.071Z"/>
  <path fill="#002135" d="M103.819 210.943s7.433 8.69-5.536 22.97l-3.704-7.884 9.24-15.086Z"/>
  <path fill="#E9BDB0" d="m102.493 245.012 16.081 26.388-2.315-1.951 26.503 13.624a1.864 1.864 0 0 1 .876 2.339 1.86 1.86 0 0 1-2.239 1.105l-28.645-8.211a3.621 3.621 0 0 1-2.099-1.596l-.215-.354-16.08-26.388a4.761 4.761 0 1 1 8.133-4.956Z"/>
  <path fill="#002135" d="m105.253 219.459-1.847 7.411s-5.235 8.471-4.826 14.066c.41 5.597-2.169 7.616-6.31 3.717-4.14-3.899 1.675-20.494 1.675-20.494l11.308-4.7Z"/>
  <path fill="#ABCDFB" d="M68.932 313.199c-.124-7.922 15.031-19.823 15.41-31.677.648-20.192-13.257-40.244-13.257-40.244a60.6 60.6 0 0 1 9.417-1.267 43.375 43.375 0 0 1 14.77.539c2.842.358 4.506.726 4.506.726s1.265 5.04.481 21.238c-.783 16.198 9.307 45.207 9.307 45.207a194.36 194.36 0 0 0-9.823-.739l.035.39c-6.65-.4-13.323-.204-19.938.585l.041-.336c-11.943 1.722-10.95 5.578-10.95 5.578Z"/>
  <path fill="#E9BDB0" d="M82.168 223.91c-.66-4.644 2.12-10.213 3.273-11.924.185-.237.379-.472.583-.705 2.021-2.121 8.031-6.379 13.475-2.942a13.431 13.431 0 0 1 2.009 1.628c3.817 3.977 2.929 9.774 2.019 13.242a50.946 50.946 0 0 1-.702 2.172c-1.421 3.807-4.038 8.482-6.15 10.339-2.603 2.205-7.11.018-10.143-2.555a30.907 30.907 0 0 1-.89-.923c-2.418-2.974-3.474-8.332-3.474-8.332Z"/>
  <path fill="#414D69" d="M78.684 240.329s4.21 18.925 12.07 22.905c0 0 5.137-9.807 2.55-23.031l6.474 1.073s2.665 19.84 1.973 27.213c-.693 7.373 7.815 33.884 7.815 33.884l3.149 9.776-43.784 1.05s3.208-16.923 4.225-28.446c1.016-11.523-2.932-43.664-2.932-43.664l8.46-.76Z"/>
  <path fill="#E9BDB0" d="m76.969 246.822 12.133 34.228-3.787-3.12 39.329 8.804a1.86 1.86 0 0 1 1.428 2.085 1.857 1.857 0 0 1-1.974 1.579l-40.187-3.047a4.241 4.241 0 0 1-3.678-2.809l-.11-.31-12.131-34.228a4.762 4.762 0 0 1 8.977-3.182Z"/>
  <path fill="#EDB2A0" d="M81.619 214.821c.234-.244.466-.491.697-.743 4.51-4.947 8.919-6.262 12.477-6.162a12.41 12.41 0 0 1 3.46.86c.71.303 1.396.659 2.053 1.063 3.464 2.265 3.31 5.296 2.672 7.429-2.056 1.394-6.934 3.853-14.77 2.842-2.402-.31-4.052.078-5.12.843a14.444 14.444 0 0 1-1.671-3.079 5.198 5.198 0 0 1 .201-3.053Z"/>
  <path fill="#E9BDB0" d="M123.019 287.064s5.253-3.79 9.203-1.663c3.951 2.126 5.297 4.899 3.465 4.225 0 0 .895 1.521-.542 1.124 0 0 .432 1.045-.527.9l-1.564-.776s.799.538.236.904c-.562.367-7.042-1.93-9.169-1.504-2.127.424-1.102-3.21-1.102-3.21Z"/>
  <path fill="#fff" d="m132.85 255.926-10.452-4.048.564-1.458 10.453 4.048-.565 1.458Zm-1.101 2.843-10.452-4.048.564-1.457 10.453 4.048-.565 1.457Z"/>
  <path fill="#ABCDFB" d="M82.068 259.912s-7.615 4.126-12.048 5.725c0 0-6.51-21.959-.91-24.359 5.6-2.399 12.958 18.634 12.958 18.634Zm17.71-18.635s8.174 10.79 11.057 15.135c0 0-8.019 6.013-8.988 7.626l-2.069-22.761Z"/>
  <path fill="#002135" d="M104.077 215.068s-4.626 4.995-14.17 2.809c-9.543-2.187-4.175 8.593-6.758 12.265-2.583 3.672-5.66-13.589 2.513-20.575 8.174-6.986 19.667-4.811 18.415 5.501Z"/>
  <path fill="#E9BDB0" d="M82.675 222.83c.013-1.68.77-3.036 1.69-3.029.922.006 1.657 1.374 1.645 3.054-.012 1.68-.769 3.036-1.69 3.029-.921-.006-1.658-1.374-1.645-3.054Z"/>
  <path fill="#485355" d="m149.615 289.755.207-.095.356.773-.207.096-.356-.774Z"/>
  <path fill="#59A8AF" d="m148.231 287.668-5.781-12.364c-.226-.482-.247-.951-.048-1.043l.162-.075c.2-.091.542.23.762.715l5.636 12.43a.404.404 0 0 1-.731.337Z"/>
  <path fill="#7AD9DB" d="m148.449 288.784-5.848-12.334a.877.877 0 0 1 .275-1.192l.312-.143a.873.873 0 0 1 1.084.566l5.57 12.462c.212.475-1.17 1.111-1.393.641Z"/>
  <path fill="#5E5C67" d="m149.842 288.142-5.57-12.462a.876.876 0 0 0-1.084-.565l-.312.143a.626.626 0 0 0-.268.244l.281-.13a.875.875 0 0 1 1.085.565l5.569 12.462a.323.323 0 0 1-.067.329c.266-.162.454-.388.366-.586Z" opacity=".46" style="mix-blend-mode:multiply"/>
  <path fill="#C5EAE9" d="m150.149 290.075-.431.199-1.31-1.472 1.473-.678.268 1.951Z"/>
  <path fill="#AAD1CF" d="m149.881 288.124-.28.129.265 1.941-.156.071c.008.009.438-.19.438-.19l-.267-1.951Z"/>
  <path fill="#59A8AF" d="m144.164 275.488.391-.171 1.855 4.262-.391.17-1.855-4.261Z"/>
  <path fill="#E9BDB0" d="M139.524 281.522s5.489.485 7.36 1.101c1.871.616 4.078 5.211 2.275 6.018-1.803.808-10.812-3.002-10.812-3.002l1.177-4.117Z"/>
  <path fill="#fff" d="M123.87 290.571h29.831v.808H123.87v-.808Z"/>
  <path fill="#414D69" d="M83.184 235.064s1.799 2.538 6.5 3.572c0 0 1.054-.006 1.207-1.335l1.38 2.751a2.977 2.977 0 0 1-1.517 3.097l-1.516-2.945-.495 2.945-3.572-1.873-1.987-6.212Z"/>
  <path fill="#D7615F" d="M123.87 290.975h29.831v.807H123.87v-.807Z"/>
  <path fill="#002135" d="M93.945 205.652s-10.952.489-13.576 11.003c-2.624 10.513-2.388 15.465-5.445 19.973-3.056 4.508-3.01 14.914 7.145 16.545 10.154 1.632 4.697-15.112 5.356-26.106.66-10.993 6.73-14.564 6.73-14.564l-.21-6.851Zm224.144 166.651.199 5.484-22.298.81a6.581 6.581 0 0 1 5.114-3.845c3.737-.417 10.282-1.03 11.672-4.083 1.391-3.053 5.313 1.634 5.313 1.634Z"/>
  <path fill="#002135" d="m295.989 378.597 22.299-.811.074 2.039-22.299.81-.074-2.038Z"/>
  <path fill="#E9BDB0" d="M310.457 366.609c.092 1.534.138 5.29-1.45 6.741 0 0 5.476.975 9.082-1.047l-.783-5.791-6.849.097Z"/>
  <path fill="#FFC5C5" d="M313.752 378.561s5.216 1.936 9.124.591l.436-9.676-6.862 2.043s-.382 5.588-2.698 7.042Z"/>
  <path fill="#002135" d="m322.876 379.152-.782 5.43-22.086-3.181a6.586 6.586 0 0 1 5.718-2.87c3.753.256 10.302.82 12.214-1.935 1.912-2.756 4.936 2.556 4.936 2.556Z"/>
  <path fill="#002135" d="m300.008 381.401 22.086 3.181-.291 2.019-22.085-3.181.29-2.019Z"/>
  <path fill="#E9BDB0" d="M316.383 372.187c-.183 1.526-.808 5.23-2.63 6.374 0 0 5.215 1.936 9.123.591l.263-5.838-6.756-1.127Z"/>
  <path fill="#FFC5C5" d="M309.007 373.351s5.476.974 9.082-1.047l-1.298-9.599-6.387 3.234s.621 5.567-1.397 7.412Z"/>
  <path fill="#364259" d="m316.855 372.169 9.315-50.348 30.397.72c.909.021 1.818-.053 2.712-.221 6.721-1.3 9.565-10.902 8.264-17.623-1.3-6.72-6.252-8.014-12.972-6.714l-.118.023-38.108 7.373-1.04.201a7.649 7.649 0 0 0-4.784 3.092l-1.727 60.525 8.061 2.972Z"/>
  <path fill="#E9BDB0" d="M364.708 241.815c.597-5.107 1.781-22.885 1.792-23.064l10.21-1.801c-.049.742-1.405 20.676-2.031 26.032l-9.971-1.167Z"/>
  <path fill="#414D69" d="m323.428 375.184 17.722-50.563 35.531-.897c.909.021 1.817-.053 2.711-.221 6.721-1.3 9.565-8.981 8.264-15.701-1.3-6.72-6.252-8.014-12.972-6.714l-.118.023-38.108 7.373-1.04.201a7.656 7.656 0 0 0-4.785 3.091l-15.139 60.484 7.934 2.924Z"/>
  <path fill="#EDB2A0" d="m366.5 218.75 10.21-1.8c-.016.237-.166 2.441-.382 5.498a16.526 16.526 0 0 1-3.869 4.339c-.332.204-.675.405-1.026.601a14.989 14.989 0 0 1-5.637 1.427c.384-5.259.698-9.973.704-10.065Z"/>
  <path fill="#E9BDB0" d="M377.647 218.286c1.756-3.979.67-9.646.069-11.463a13.783 13.783 0 0 0-.343-.775c-1.272-2.4-5.569-7.708-11.29-6.005-.762.245-1.499.563-2.201.949-4.403 2.593-5.064 7.989-5.122 11.313.013.692.038 1.398.082 2.115.314 3.754 1.478 8.582 2.897 10.769 1.77 2.621 6.341 1.798 9.694.262.346-.193.688-.393 1.026-.6 2.903-2.048 5.188-6.565 5.188-6.565Z"/>
  <path fill="#EDAE9F" d="m357.666 240.516-17.664 29.46-.19.315a3.703 3.703 0 0 1-1.636 1.467l-32.745 15.078a1.963 1.963 0 0 1-2.523-.812 1.962 1.962 0 0 1 .594-2.583l29.714-20.411-1.824 1.783 17.664-29.459a5.008 5.008 0 0 1 5.042-2.384 5.02 5.02 0 0 1 3.568 7.546Z"/>
  <path fill="#DC7C6D" d="M349.602 286.712c1.02-11.764-.567-27.552 1.262-38.118.1-.576.197-1.124.293-1.659.263-7.179.957-12.636 2.411-13.495 2.941-1.74 10.204-2.069 15.372-2.065 2.631-.199 11.575.225 14.739 1.116a3.837 3.837 0 0 1 1.681.963c4.902-.334 2.025 70.781 2.025 70.781 2.263 8.078-42.542-4.255-42.542-4.255l4.759-13.268Z"/>
  <path fill="#E9BDB0" d="m391.976 239.816-10.665 38.482-.096.347a4.586 4.586 0 0 1-4.974 3.327l-40.636-4.962a1.958 1.958 0 0 1 .182-3.9l40.92-1.166-5.071 3.673 10.666-38.483a5.02 5.02 0 1 1 9.674 2.681v.001Z"/>
  <path fill="#DC7C6D" d="M356.192 232.455s-5.298-2.555-9.513 5.48-20.509 29.459-20.509 29.459l2.743 12.728s8.759-8.111 12.268-10.97c3.509-2.858 15.011-24.59 15.011-24.59v-12.107Z"/>
  <path fill="#E9BDB0" d="m338.796 274.412-.782-2.402s-1.547-3.246-7.338-4.024c-5.791-.777-9-.979-7.365.576l4.628 1.055s-5.12-1.25-5.381-.315c-.262.935 5.423 1.779 5.423 1.779s-4.961-1.242-5.228-.072c-.267 1.17 5.77 2.061 5.77 2.061s-3.355-.752-3.652.546c-.296 1.299 5.011 1.424 9.106 2.9 4.094 1.475 4.819-2.104 4.819-2.104Z"/>
  <path fill="#002135" d="M370.686 197.715c-1.335-.666-3.453-2.755-5.966 0-2.514 2.755-4.328 1.428-5.96 5.476-1.631 4.048.394 7.253 4.269 6.59 3.876-.662 6.246 2.516 10.044 1.961 3.798-.555 2.318 10.868 3.637 8.18 1.319-2.689 4.466-3.847 3.409-9.816-.524-2.961 1.085-6.065-1.516-8.638-3.021-2.987-2.081-2.987-3.8-3.497-1.902-.565-3.062.271-4.117-.256Z"/>
  <path fill="#E9BDB0" d="M377.462 215.511c0-1.523-.567-2.757-1.268-2.757-.699 0-1.267 1.235-1.267 2.757 0 1.523.568 2.758 1.268 2.758.7 0 1.267-1.235 1.267-2.758Z"/>
  <path fill="#F88F81" d="M383.679 232.491s12.072-1.425 8.868 12.071c-3.204 13.496-8.386 38.376-16.073 38.943-7.687.568-35.293-5.198-35.293-5.198v-5.591l30.072-2.831s8.016-31.068 12.426-37.394Z"/>
  <path fill="#DC7C6D" d="M363.71 231.501a8.836 8.836 0 0 0 2.086-2.686s7.467.714 10.116-.608c0 0 1.791 3.499 2.691 3.862.9.363-6.244 3.559-6.527 3.559-.282 0-8.366-4.127-8.366-4.127Z"/>
  <path fill="#6D7CB5" d="M223.439 294.788h7.411v93.572h-7.411v-93.572Z"/>
  <path fill="#6D7CB5" d="M223.439 294.788h7.411v10.473h-7.411v-10.473Z" opacity=".75" style="mix-blend-mode:multiply"/>
  <path fill="#5D6B9C" d="M177.651 384.935h98.988v3.425h-98.988v-3.425Z"/>
  <path fill="#3E4B88" d="M302.239 291.782h107.905v8.644H302.239v-8.644Z"/>
  <path fill="#575757" d="M323.151 289.499h43.993v2.444h-43.993v-2.444Z"/>
  <path fill="#6A6A6B" d="M337.748 291.943h-47.501l-10.656-32.348a2.204 2.204 0 0 1 1.092-2.654c.31-.159.654-.241 1.003-.241h41.948a3.46 3.46 0 0 1 3.289 2.38l10.825 32.863Z"/>
  <path fill="#575757" d="M307.062 276.916a2.595 2.595 0 1 0 0-5.19 2.595 2.595 0 0 0 0 5.19Z"/>
  <path fill="#6B6B6B" d="m305.285 291.943 6.227-35.243h-29.826a2.197 2.197 0 0 0-1.787.912 2.208 2.208 0 0 0-.308 1.983l10.656 32.348h15.038Z" opacity=".43"/>
  <path fill="#575757" d="M294.943 291.943h38.188l-.805-2.444h-38.188l.805 2.444Z"/>
  <path fill="#B9B9B9" d="M177.995 291.943h51.829l.227-35.295a2.4 2.4 0 0 0-.336-2.163 2.399 2.399 0 0 0-1.949-.996h-45.769a3.782 3.782 0 0 0-3.589 2.597l-.413 35.857Z"/>
  <path fill="#A09D9D" d="M204.396 275.547a2.831 2.831 0 1 0 0-5.662 2.831 2.831 0 0 0 0 5.662Zm-26.401 13.207h52.178v3.188h-52.178v-3.188Z"/>
  <path fill="#414D69" d="m71.185 300.025-2.254 13.174s-.314 8.622 6.757 8.622c7.07 0 48.683.412 48.683.412s12.442-.377 19.883-5.857c0 0-3.944-10.483-12.039-11.115-8.095-.633-18.445-1.196-23.172-4.549-4.727-3.353-37.858-.687-37.858-.687Z"/>
  <path fill="#616F9D" d="M96.178 291.783H320.55v8.643H96.178v-8.643Z"/>
  <path fill="#5E5C67" d="M147.016 379.981s.8 1.019 4.914 2.769c4.115 1.75 9.54 2.105 9.253 4.498-.286 2.394-13.65.205-16.127 0-2.477-.203-3.718-.398-3.356-5.992 0 0 4.119.514 5.316-1.275Z"/>
  <path fill="#5E5C67" d="M135.312 378.433s.58 1.159 4.262 3.696c3.682 2.538 8.925 3.971 8.165 6.259-.76 2.289-13.415-2.53-15.801-3.226-2.385-.695-3.564-1.135-2.089-6.543 0 0 3.932 1.328 5.463-.186Z"/>
  <path fill="#fff" d="M263.835 277.094h10.736v14.688h-10.736v-14.688Z"/>
  <path fill="#fff" d="M272.86 290.326a6.1 6.1 0 0 1-.634-.028l.192-1.745c.02.002 2.355.229 3.779-1.053a3.946 3.946 0 0 0 1.14-3.062c0-1.304-.356-2.247-1.06-2.803-1.379-1.088-3.725-.544-3.748-.538l-.415-1.706c.13-.031 3.186-.755 5.242.858 1.153.905 1.739 2.315 1.739 4.19a5.585 5.585 0 0 1-1.734 4.374 6.871 6.871 0 0 1-4.501 1.513Z"/>
  <path fill="#7AD9DB" d="M271.384 284.439a2.184 2.184 0 0 0-2.606-2.139 2.182 2.182 0 0 0-1.588 2.973 2.176 2.176 0 0 0 3.556.707 2.173 2.173 0 0 0 .638-1.541Z"/>
  <path fill="#fff" d="M169.057 291.784h-10.736v-14.689h10.736v14.689Z"/>
  <path fill="#fff" d="M160.031 290.326a6.868 6.868 0 0 1-4.5-1.512 5.597 5.597 0 0 1-1.733-4.375c0-1.875.585-3.285 1.738-4.189 2.055-1.613 5.113-.89 5.242-.859l-.417 1.706.208-.853-.206.853c-.023-.006-2.369-.55-3.747.537-.704.557-1.062 1.5-1.062 2.805a3.94 3.94 0 0 0 .239 1.659c.199.53.509 1.01.91 1.409 1.413 1.265 3.746 1.047 3.771 1.046l.191 1.745c-.21.02-.421.03-.633.028h-.001Z"/>
  <path fill="#7AD9DB" d="M161.508 284.439a2.184 2.184 0 0 1 2.605-2.139 2.181 2.181 0 1 1-2.605 2.139Z"/>
  <path fill="#EDB2A0" d="M458.515 367.06s.308 3.63-1.528 6.383 7.393 3.405 8.127 1.386c.734-2.019.809-8.635.809-8.635l-7.408.866Zm48.888-108.565s-1.044 4.563-1.228 5.827c-.185 1.263 1.544 6.798 1.975 6.231.43-.567-.441-5.543 1.176-3.651 1.618 1.893.603 7.952 1.958 8.681 1.356.728.386-.652 1.391-.784 1.004-.133.71-1.853 1.057-2.402.346-.548 1.242-3.665-.425-8.555s-4.547-6.403-4.547-6.403l-1.357 1.056Z"/>
  <path fill="#455677" d="M465.758 372.171s-3.192 1.246-8.264 0c0 0-.991 2.998-3.681 3.205-2.691.207-10.245-1.656-10.867 4.036 0 0 2.07 2.173 17.49.621l.865-1.035v1.035c1.846.233 3.715.198 5.551-.104 0 0 1.33-3.201-1.094-7.758Z"/>
  <path fill="#EDB2A0" d="M494.422 366.821s.578 3.597-1.046 6.479c-1.625 2.882 7.626 2.843 8.207.776.581-2.068.162-8.67.162-8.67l-7.323 1.415Z"/>
  <path fill="#455677" d="M502.027 371.377s-3.089 1.48-8.241.617c0 0-.764 3.063-3.432 3.472-2.668.408-10.34-.887-10.534 4.836 0 0 2.226 2.012 17.487-.688l.785-1.096.078 1.032a19.33 19.33 0 0 0 5.528-.518s1.087-3.292-1.671-7.655Z"/>
  <path fill="#5A6B92" d="m466.434 234.12-10.295 10.442s-2.444 47.387-2.591 61.616c-.148 14.228 2.591 64.382 2.591 64.382h10.684s4.049-43.735 1.8-61.628l20.443-78.042-22.632 3.23Z"/>
  <path fill="#5A6B92" d="m481.883 229.471-8.627 12.225s4.662 49.113 6.642 63.776c1.98 14.662 12.185 65.877 12.185 65.877l10.573-1.536s-2.529-45.585-7.427-63.674l2.91-57.931-16.256-18.737Z"/>
  <path fill="#EDB2A0" d="M468.901 162.123s1.873 4.753-.684 12.45c-2.558 7.698 11.887 3.764 11.887 3.764l-.252-18.638-10.951 2.424Z"/>
  <path fill="#FFD0CD" d="m453.936 182.123-25.456-17.544-.279-.193a4.365 4.365 0 0 1-1.857-3.183l-3.814-42.885a1.987 1.987 0 0 1 3.909-.635l9.955 41.888-2.136-3.376 25.456 17.544a5.09 5.09 0 1 1-5.778 8.383v.001Zm37.536-4.556c1.307 3.025 2.506 6.083 3.71 9.139a519.752 519.752 0 0 1 3.464 9.214c1.151 3.072 2.211 6.172 3.314 9.258l3.176 9.301c.026.075.045.153.058.231l.021.126 1.81 11.162c.556 3.727 1.158 7.448 1.667 11.182.542 3.73 1.032 7.467 1.512 11.206.452 3.742.912 7.483 1.257 11.241a2.261 2.261 0 0 1-3.556 2.052 2.258 2.258 0 0 1-.91-1.408c-.731-3.702-1.348-7.42-1.972-11.138a692.767 692.767 0 0 1-1.717-11.175c-.568-3.726-1.041-7.465-1.561-11.198l-1.419-11.218.079.357-2.474-9.51c-.779-3.184-1.603-6.355-2.335-9.553a508.78 508.78 0 0 1-2.186-9.597c-.679-3.215-1.364-6.427-1.938-9.672Z"/>
  <path fill="#BBE2FF" d="M506.16 258.127v3.008l6.574-.752-1.185-3.76-5.389 1.504Z"/>
  <path fill="#60D3D2" d="M487.14 170.858s8.319-4.561 15.516 21.777c7.197 26.338 10.078 65.771 10.078 65.771l-7.083 1.543s-7.999-49.237-16.585-61.17c-8.586-11.933-1.926-27.92-1.926-27.92v-.001Z"/>
  <path fill="#EDB2A0" d="M464.996 170.248s11.839 1.048 14.14 3.278 3.266 1.504 3.266 1.504a14.388 14.388 0 0 0-5.901-5.751c-4.027-2.015-11.504.969-11.504.969h-.001Z"/>
  <path fill="#70E3E7" d="M498.139 241.588c-.351-2.198-2.383-19.202-2.765-31.857.358-8.132 1.136-31.743-3.252-38.1-1.975-2.86-30.885-2.535-30.885-2.535-3.256 1.217-7.248 10.331-6.802 21.12.859 20.777-.431 43.329-.887 54.204 2.354.324 35.282.349 44.591-2.832Z"/>
  <path fill="#FFC5C4" d="m479.851 159.699.035 2.492a11.39 11.39 0 0 1-1.667 1.049c-3.572 1.808-6.453 2.912-8.662 3.125.01-1.44-.211-2.873-.656-4.242l10.95-2.424Z" opacity=".53" style="mix-blend-mode:multiply"/>
  <path fill="#EDB2A0" d="M473.347 135.319s-6.334 1.622-8.458 16.197c-2.125 14.575 2.286 15.87 13.611 10.14 11.324-5.73 9.744-29.021-5.153-26.337Zm-49.827-23.802 2.88 2.4s.885 4.453-1.44 5.099c-2.324.645-4.635-4.046-4.261-9.171.375-5.124 2.821 1.672 2.821 1.672Z"/>
  <path fill="#EDB2A0" d="M425.443 113.917h.957s-.233-3.835-.376-5.122c-.143-1.288.097-4.505-.975-3.933-1.072.572.502 5.438-.553 3.671l-.911-7.782s-3.147 1.724-2.933 8.16c.215 6.436 2.3 6.507 2.3 6.507l2.491-1.501Z"/>
  <path fill="#002135" d="M472.023 134.295c2.926-1.005 9.682-2.612 13.188 4.544 3.507 7.156 4.778 5.42 3.16 11.233-1.619 5.815-2.771 11.1-7.306 12.216-5.814 1.432-8.987 1.243-8.987 1.243s-.361-3.923 2.056-5.955c2.571-2.159 5.751-8.525 2.215-6.945-4.254 1.901-3.638-1.584-2.965-5.387.673-3.802-6.506-2.675-6.439-5.495.066-2.82 1.983-4.39 5.078-5.454Z"/>
  <path fill="#BBE2FF" d="M421.429 121.38v-2.883l5.766-1.253.752 3.258-6.518.878Z"/>
  <path fill="#70E3E7" d="M461.237 169.096s-20.23-5.069-23.901-19.132c-3.672-14.064-8.72-31.964-8.72-31.964l-8.263 2.295s4.07 42.216 7.345 46.07c7.458 8.778 23.183 16.207 26.737 23.851 3.554 7.644 6.802-21.12 6.802-21.12Z"/>
  <path fill="#002135" d="M473.059 147.214s-.82 7.348-4.158 7.541c-3.338.193-4.529-.496-4.529-.496s-.531 9.883 1.305 10.564c1.836.681 4.386 1.156 5.967-6.548 1.581-7.704 4.199-7.437 4.199-7.437v-5.529l-2.784 1.905Z"/>
  <path fill="#002135" d="m476.922 135.785 1.083-2.327s4.059-.885 7.913 4.737c3.854 5.623 2.019 5.428 4.2 9.771 2.18 4.342-3.787 5.928-3.329 11.733.458 5.805-14.711 3.832-14.711 3.832l11.729-8.776-3.922-14.61-2.963-4.36Z"/>
  <path fill="#002135" d="M467.467 140.886s-2.353-1.314-.522-5.215c1.83-3.901 1.601-.689 5.731-2.754 4.131-2.066 9.265 1.43 9.265 1.43l-4.675 7.864-9.799-1.325Z"/>
  <path fill="#70E3E7" d="M454.57 194.056s-.301 49.124-2.056 57.412c-1.755 8.289 12.483 11.809 31.706 11.766 21.981-.048 14.264-19.043 13.919-21.645-.344-2.603-9.812-40.12-9.812-40.12l-33.757-7.413Z"/>
  <path fill="#BBE2FF" d="M467.21 169.1s9.4 3.219 14.43.42c0 0-8.648-1.003-14.43-.42Z"/>
</svg>
